<?xml version="1.0" encoding="UTF-8" standalone="no"?>
<svg
   xmlns:dc="http://purl.org/dc/elements/1.1/"
   xmlns:cc="http://creativecommons.org/ns#"
   xmlns:rdf="http://www.w3.org/1999/02/22-rdf-syntax-ns#"
   xmlns:svg="http://www.w3.org/2000/svg"
   xmlns="http://www.w3.org/2000/svg"
   id="svg8"
   version="1.1"
   viewBox="0 0 134.0036 146.64221"
   height="146.64221mm"
   width="134.0036mm">
  <defs
     id="defs2">
    <filter
       id="filter4066"
       style="color-interpolation-filters:sRGB">
      <feFlood
         id="feFlood4056"
         result="flood"
         flood-color="rgb(0,0,0)"
         flood-opacity="0.5" />
      <feComposite
         id="feComposite4058"
         result="composite1"
         operator="in"
         in2="SourceGraphic"
         in="flood" />
      <feGaussianBlur
         id="feGaussianBlur4060"
         result="blur"
         stdDeviation="25"
         in="composite1" />
      <feOffset
         id="feOffset4062"
         result="offset"
         dy="6"
         dx="6" />
      <feComposite
         id="feComposite4064"
         result="composite2"
         operator="over"
         in2="offset"
         in="SourceGraphic" />
    </filter>
  </defs>
  <metadata
     id="metadata5">
    <rdf:RDF>
      <cc:Work
         rdf:about="">
        <dc:format>image/svg+xml</dc:format>
        <dc:type
           rdf:resource="http://purl.org/dc/dcmitype/StillImage" />
        <dc:title></dc:title>
      </cc:Work>
    </rdf:RDF>
  </metadata>
  <g
     transform="translate(-40.915124,-88.053797)"
     style="display:inline"
     id="layer5">
    <path
       id="path4855"
       transform="scale(0.26458333)"
       d="M 536.6543,378.98828 486.11133,402.5 483.9375,417.73633 a 221.67392,136.55317 79.633229 0 1 40.05273,69.53906 l 58.22461,-49.50586 A 211.03022,257.83222 0 0 0 536.6543,378.98828 Z m 73.07617,129.0293 -64.79688,55.09375 A 221.67392,136.55317 79.633229 0 1 449.27734,797.6543 221.67392,136.55317 79.633229 0 1 334.85742,741.72852 L 280.28906,788.125 A 211.03022,257.83222 0 0 0 407.875,840.85352 211.03022,257.83222 0 0 0 618.9043,583.01953 211.03022,257.83222 0 0 0 609.73047,508.01758 Z m -351.55664,0.51172 -57.54102,26.76758 a 211.03022,257.83222 0 0 0 -3.78711,47.72265 211.03022,257.83222 0 0 0 39.0918,149.17383 l 61.91602,-52.64453 a 221.67392,136.55317 79.633229 0 1 -22.79102,-75.37891 221.67392,136.55317 79.633229 0 1 -4.98828,-85.41601 z"
       style="display:inline;fill:#333333;fill-opacity:1;stroke:none;stroke-width:1.88976383;stroke-linecap:butt;stroke-linejoin:miter;stroke-miterlimit:10;stroke-dasharray:none;stroke-opacity:1;filter:url(#filter4066)" />
  </g>
</svg>
